<mxfile host="Electron" modified="2024-10-10T11:08:36.862Z" agent="Mozilla/5.0 (Windows NT 10.0; Win64; x64) AppleWebKit/537.36 (KHTML, like Gecko) draw.io/23.1.5 Chrome/120.0.6099.109 Electron/28.1.0 Safari/537.36" etag="i0KMm-sz_CEE0LqOc_aP" version="23.1.5" type="device">
  <diagram name="Pagina-1" id="_Hn1O7FLaWHiweqptGIv">
    <mxGraphModel dx="1050" dy="621" grid="1" gridSize="10" guides="1" tooltips="1" connect="1" arrows="1" fold="1" page="1" pageScale="1" pageWidth="827" pageHeight="1169" math="0" shadow="0">
      <root>
        <mxCell id="0" />
        <mxCell id="1" parent="0" />
        <mxCell id="A0odtMiIuocTaiuIzd_7-37" style="edgeStyle=orthogonalEdgeStyle;rounded=0;orthogonalLoop=1;jettySize=auto;html=1;exitX=0.75;exitY=1;exitDx=0;exitDy=0;endArrow=none;endFill=0;" parent="1" source="A0odtMiIuocTaiuIzd_7-1" target="A0odtMiIuocTaiuIzd_7-36" edge="1">
          <mxGeometry relative="1" as="geometry">
            <Array as="points">
              <mxPoint x="190" y="150" />
              <mxPoint x="190" y="190" />
              <mxPoint x="280" y="190" />
            </Array>
          </mxGeometry>
        </mxCell>
        <mxCell id="A0odtMiIuocTaiuIzd_7-1" value="User" style="whiteSpace=wrap;html=1;align=center;" parent="1" vertex="1">
          <mxGeometry x="120" y="110" width="100" height="40" as="geometry" />
        </mxCell>
        <mxCell id="A0odtMiIuocTaiuIzd_7-9" style="edgeStyle=orthogonalEdgeStyle;rounded=0;orthogonalLoop=1;jettySize=auto;html=1;exitX=1;exitY=1;exitDx=0;exitDy=0;endArrow=none;endFill=0;" parent="1" source="A0odtMiIuocTaiuIzd_7-2" target="A0odtMiIuocTaiuIzd_7-1" edge="1">
          <mxGeometry relative="1" as="geometry" />
        </mxCell>
        <mxCell id="A0odtMiIuocTaiuIzd_7-2" value="Name" style="ellipse;whiteSpace=wrap;html=1;align=center;" parent="1" vertex="1">
          <mxGeometry x="50" y="30" width="100" height="40" as="geometry" />
        </mxCell>
        <mxCell id="A0odtMiIuocTaiuIzd_7-3" value="Phone number" style="ellipse;whiteSpace=wrap;html=1;align=center;" parent="1" vertex="1">
          <mxGeometry x="170" y="20" width="100" height="40" as="geometry" />
        </mxCell>
        <mxCell id="A0odtMiIuocTaiuIzd_7-12" style="edgeStyle=orthogonalEdgeStyle;rounded=0;orthogonalLoop=1;jettySize=auto;html=1;endArrow=none;endFill=0;" parent="1" source="A0odtMiIuocTaiuIzd_7-4" target="A0odtMiIuocTaiuIzd_7-1" edge="1">
          <mxGeometry relative="1" as="geometry" />
        </mxCell>
        <mxCell id="A0odtMiIuocTaiuIzd_7-4" value="Email" style="ellipse;whiteSpace=wrap;html=1;align=center;" parent="1" vertex="1">
          <mxGeometry x="300" y="90" width="80" height="40" as="geometry" />
        </mxCell>
        <mxCell id="A0odtMiIuocTaiuIzd_7-15" style="edgeStyle=orthogonalEdgeStyle;rounded=0;orthogonalLoop=1;jettySize=auto;html=1;exitX=1;exitY=0;exitDx=0;exitDy=0;endArrow=none;endFill=0;" parent="1" source="A0odtMiIuocTaiuIzd_7-5" target="A0odtMiIuocTaiuIzd_7-1" edge="1">
          <mxGeometry relative="1" as="geometry">
            <Array as="points">
              <mxPoint x="70" y="176" />
              <mxPoint x="70" y="150" />
              <mxPoint x="140" y="150" />
            </Array>
          </mxGeometry>
        </mxCell>
        <mxCell id="A0odtMiIuocTaiuIzd_7-5" value="Password" style="ellipse;whiteSpace=wrap;html=1;align=center;" parent="1" vertex="1">
          <mxGeometry x="20" y="170" width="100" height="40" as="geometry" />
        </mxCell>
        <mxCell id="A0odtMiIuocTaiuIzd_7-14" style="edgeStyle=orthogonalEdgeStyle;rounded=0;orthogonalLoop=1;jettySize=auto;html=1;exitX=0;exitY=0;exitDx=0;exitDy=0;endArrow=none;endFill=0;" parent="1" source="A0odtMiIuocTaiuIzd_7-7" target="A0odtMiIuocTaiuIzd_7-1" edge="1">
          <mxGeometry relative="1" as="geometry" />
        </mxCell>
        <mxCell id="A0odtMiIuocTaiuIzd_7-7" value="Seller" style="ellipse;whiteSpace=wrap;html=1;align=center;" parent="1" vertex="1">
          <mxGeometry x="110" y="190" width="100" height="40" as="geometry" />
        </mxCell>
        <mxCell id="A0odtMiIuocTaiuIzd_7-13" style="edgeStyle=orthogonalEdgeStyle;rounded=0;orthogonalLoop=1;jettySize=auto;html=1;exitX=0;exitY=0;exitDx=0;exitDy=0;endArrow=none;endFill=0;" parent="1" source="A0odtMiIuocTaiuIzd_7-8" target="A0odtMiIuocTaiuIzd_7-1" edge="1">
          <mxGeometry relative="1" as="geometry">
            <Array as="points">
              <mxPoint x="200" y="176" />
            </Array>
          </mxGeometry>
        </mxCell>
        <mxCell id="A0odtMiIuocTaiuIzd_7-8" value="Nieuwsbrief" style="ellipse;whiteSpace=wrap;html=1;align=center;" parent="1" vertex="1">
          <mxGeometry x="290" y="170" width="100" height="40" as="geometry" />
        </mxCell>
        <mxCell id="A0odtMiIuocTaiuIzd_7-11" style="edgeStyle=orthogonalEdgeStyle;rounded=0;orthogonalLoop=1;jettySize=auto;html=1;exitX=0.5;exitY=1;exitDx=0;exitDy=0;entryX=0.9;entryY=0;entryDx=0;entryDy=0;entryPerimeter=0;endArrow=none;endFill=0;" parent="1" source="A0odtMiIuocTaiuIzd_7-3" target="A0odtMiIuocTaiuIzd_7-1" edge="1">
          <mxGeometry relative="1" as="geometry" />
        </mxCell>
        <mxCell id="A0odtMiIuocTaiuIzd_7-17" value="Adress" style="whiteSpace=wrap;html=1;align=center;" parent="1" vertex="1">
          <mxGeometry x="530" y="110" width="100" height="40" as="geometry" />
        </mxCell>
        <mxCell id="A0odtMiIuocTaiuIzd_7-26" style="edgeStyle=orthogonalEdgeStyle;rounded=0;orthogonalLoop=1;jettySize=auto;html=1;exitX=0.5;exitY=1;exitDx=0;exitDy=0;entryX=0;entryY=0;entryDx=0;entryDy=0;endArrow=none;endFill=0;" parent="1" source="A0odtMiIuocTaiuIzd_7-18" target="A0odtMiIuocTaiuIzd_7-17" edge="1">
          <mxGeometry relative="1" as="geometry" />
        </mxCell>
        <mxCell id="A0odtMiIuocTaiuIzd_7-18" value="Street" style="ellipse;whiteSpace=wrap;html=1;align=center;" parent="1" vertex="1">
          <mxGeometry x="490" y="30" width="80" height="40" as="geometry" />
        </mxCell>
        <mxCell id="A0odtMiIuocTaiuIzd_7-27" style="edgeStyle=orthogonalEdgeStyle;rounded=0;orthogonalLoop=1;jettySize=auto;html=1;exitX=0;exitY=1;exitDx=0;exitDy=0;entryX=0.75;entryY=0;entryDx=0;entryDy=0;endArrow=none;endFill=0;" parent="1" source="A0odtMiIuocTaiuIzd_7-19" target="A0odtMiIuocTaiuIzd_7-17" edge="1">
          <mxGeometry relative="1" as="geometry" />
        </mxCell>
        <mxCell id="A0odtMiIuocTaiuIzd_7-19" value="City" style="ellipse;whiteSpace=wrap;html=1;align=center;" parent="1" vertex="1">
          <mxGeometry x="600" y="30" width="80" height="40" as="geometry" />
        </mxCell>
        <mxCell id="A0odtMiIuocTaiuIzd_7-28" style="edgeStyle=orthogonalEdgeStyle;rounded=0;orthogonalLoop=1;jettySize=auto;html=1;exitX=0;exitY=1;exitDx=0;exitDy=0;endArrow=none;endFill=0;" parent="1" source="A0odtMiIuocTaiuIzd_7-20" target="A0odtMiIuocTaiuIzd_7-17" edge="1">
          <mxGeometry relative="1" as="geometry" />
        </mxCell>
        <mxCell id="A0odtMiIuocTaiuIzd_7-20" value="State" style="ellipse;whiteSpace=wrap;html=1;align=center;" parent="1" vertex="1">
          <mxGeometry x="650" y="70" width="80" height="40" as="geometry" />
        </mxCell>
        <mxCell id="A0odtMiIuocTaiuIzd_7-29" style="edgeStyle=orthogonalEdgeStyle;rounded=0;orthogonalLoop=1;jettySize=auto;html=1;exitX=0;exitY=0.5;exitDx=0;exitDy=0;endArrow=none;endFill=0;" parent="1" source="A0odtMiIuocTaiuIzd_7-21" target="A0odtMiIuocTaiuIzd_7-17" edge="1">
          <mxGeometry relative="1" as="geometry" />
        </mxCell>
        <mxCell id="A0odtMiIuocTaiuIzd_7-21" value="Postal code" style="ellipse;whiteSpace=wrap;html=1;align=center;" parent="1" vertex="1">
          <mxGeometry x="660" y="130" width="80" height="40" as="geometry" />
        </mxCell>
        <mxCell id="A0odtMiIuocTaiuIzd_7-30" style="edgeStyle=orthogonalEdgeStyle;rounded=0;orthogonalLoop=1;jettySize=auto;html=1;exitX=0.5;exitY=0;exitDx=0;exitDy=0;entryX=0.75;entryY=1;entryDx=0;entryDy=0;endArrow=none;endFill=0;" parent="1" source="A0odtMiIuocTaiuIzd_7-22" target="A0odtMiIuocTaiuIzd_7-17" edge="1">
          <mxGeometry relative="1" as="geometry" />
        </mxCell>
        <mxCell id="A0odtMiIuocTaiuIzd_7-22" value="Country" style="ellipse;whiteSpace=wrap;html=1;align=center;" parent="1" vertex="1">
          <mxGeometry x="570" y="180" width="80" height="40" as="geometry" />
        </mxCell>
        <mxCell id="A0odtMiIuocTaiuIzd_7-24" style="edgeStyle=orthogonalEdgeStyle;rounded=0;orthogonalLoop=1;jettySize=auto;html=1;endArrow=none;endFill=0;" parent="1" source="A0odtMiIuocTaiuIzd_7-23" target="A0odtMiIuocTaiuIzd_7-1" edge="1">
          <mxGeometry relative="1" as="geometry">
            <Array as="points">
              <mxPoint x="300" y="160" />
              <mxPoint x="300" y="150" />
            </Array>
          </mxGeometry>
        </mxCell>
        <mxCell id="A0odtMiIuocTaiuIzd_7-25" style="edgeStyle=orthogonalEdgeStyle;rounded=0;orthogonalLoop=1;jettySize=auto;html=1;endArrow=none;endFill=0;" parent="1" source="A0odtMiIuocTaiuIzd_7-23" target="A0odtMiIuocTaiuIzd_7-17" edge="1">
          <mxGeometry relative="1" as="geometry" />
        </mxCell>
        <mxCell id="A0odtMiIuocTaiuIzd_7-23" value="Has" style="shape=rhombus;perimeter=rhombusPerimeter;whiteSpace=wrap;html=1;align=center;" parent="1" vertex="1">
          <mxGeometry x="380" y="130" width="120" height="60" as="geometry" />
        </mxCell>
        <mxCell id="A0odtMiIuocTaiuIzd_7-34" style="edgeStyle=orthogonalEdgeStyle;rounded=0;orthogonalLoop=1;jettySize=auto;html=1;exitX=0.25;exitY=0;exitDx=0;exitDy=0;endArrow=none;endFill=0;entryX=0.98;entryY=0.721;entryDx=0;entryDy=0;entryPerimeter=0;" parent="1" source="A0odtMiIuocTaiuIzd_7-31" target="A0odtMiIuocTaiuIzd_7-32" edge="1">
          <mxGeometry relative="1" as="geometry" />
        </mxCell>
        <mxCell id="A0odtMiIuocTaiuIzd_7-31" value="Shopping cart" style="whiteSpace=wrap;html=1;align=center;" parent="1" vertex="1">
          <mxGeometry x="140" y="300" width="90" height="40" as="geometry" />
        </mxCell>
        <mxCell id="A0odtMiIuocTaiuIzd_7-32" value="Products" style="ellipse;whiteSpace=wrap;html=1;align=center;" parent="1" vertex="1">
          <mxGeometry x="30" y="250" width="100" height="40" as="geometry" />
        </mxCell>
        <mxCell id="A0odtMiIuocTaiuIzd_7-35" style="edgeStyle=orthogonalEdgeStyle;rounded=0;orthogonalLoop=1;jettySize=auto;html=1;exitX=1;exitY=0.5;exitDx=0;exitDy=0;endArrow=none;endFill=0;" parent="1" source="A0odtMiIuocTaiuIzd_7-33" target="A0odtMiIuocTaiuIzd_7-31" edge="1">
          <mxGeometry relative="1" as="geometry" />
        </mxCell>
        <mxCell id="A0odtMiIuocTaiuIzd_7-33" value="user" style="ellipse;whiteSpace=wrap;html=1;align=center;" parent="1" vertex="1">
          <mxGeometry x="10" y="340" width="100" height="40" as="geometry" />
        </mxCell>
        <mxCell id="A0odtMiIuocTaiuIzd_7-38" style="edgeStyle=orthogonalEdgeStyle;rounded=0;orthogonalLoop=1;jettySize=auto;html=1;exitX=0;exitY=1;exitDx=0;exitDy=0;entryX=1;entryY=0.5;entryDx=0;entryDy=0;endArrow=none;endFill=0;" parent="1" source="A0odtMiIuocTaiuIzd_7-36" target="A0odtMiIuocTaiuIzd_7-31" edge="1">
          <mxGeometry relative="1" as="geometry" />
        </mxCell>
        <mxCell id="A0odtMiIuocTaiuIzd_7-36" value="Adds products to" style="shape=rhombus;perimeter=rhombusPerimeter;whiteSpace=wrap;html=1;align=center;" parent="1" vertex="1">
          <mxGeometry x="290" y="240" width="120" height="60" as="geometry" />
        </mxCell>
        <mxCell id="A0odtMiIuocTaiuIzd_7-39" value="Product" style="whiteSpace=wrap;html=1;align=center;" parent="1" vertex="1">
          <mxGeometry x="550" y="310" width="90" height="40" as="geometry" />
        </mxCell>
        <mxCell id="A0odtMiIuocTaiuIzd_7-40" value="Name" style="ellipse;whiteSpace=wrap;html=1;align=center;" parent="1" vertex="1">
          <mxGeometry x="700" y="260" width="100" height="40" as="geometry" />
        </mxCell>
        <mxCell id="A0odtMiIuocTaiuIzd_7-48" style="edgeStyle=orthogonalEdgeStyle;rounded=0;orthogonalLoop=1;jettySize=auto;html=1;endArrow=none;endFill=0;" parent="1" source="A0odtMiIuocTaiuIzd_7-41" target="A0odtMiIuocTaiuIzd_7-39" edge="1">
          <mxGeometry relative="1" as="geometry" />
        </mxCell>
        <mxCell id="A0odtMiIuocTaiuIzd_7-41" value="Description" style="ellipse;whiteSpace=wrap;html=1;align=center;" parent="1" vertex="1">
          <mxGeometry x="700" y="310" width="100" height="40" as="geometry" />
        </mxCell>
        <mxCell id="A0odtMiIuocTaiuIzd_7-42" value="Media" style="ellipse;whiteSpace=wrap;html=1;align=center;" parent="1" vertex="1">
          <mxGeometry x="670" y="350" width="100" height="40" as="geometry" />
        </mxCell>
        <mxCell id="A0odtMiIuocTaiuIzd_7-43" value="Price" style="ellipse;whiteSpace=wrap;html=1;align=center;" parent="1" vertex="1">
          <mxGeometry x="570" y="440" width="100" height="40" as="geometry" />
        </mxCell>
        <mxCell id="A0odtMiIuocTaiuIzd_7-52" style="edgeStyle=orthogonalEdgeStyle;rounded=0;orthogonalLoop=1;jettySize=auto;html=1;entryX=0;entryY=0.75;entryDx=0;entryDy=0;endArrow=none;endFill=0;" parent="1" source="A0odtMiIuocTaiuIzd_7-44" target="A0odtMiIuocTaiuIzd_7-39" edge="1">
          <mxGeometry relative="1" as="geometry">
            <Array as="points">
              <mxPoint x="530" y="340" />
            </Array>
          </mxGeometry>
        </mxCell>
        <mxCell id="A0odtMiIuocTaiuIzd_7-44" value="Details" style="ellipse;whiteSpace=wrap;html=1;align=center;" parent="1" vertex="1">
          <mxGeometry x="430" y="400" width="100" height="40" as="geometry" />
        </mxCell>
        <mxCell id="A0odtMiIuocTaiuIzd_7-46" value="Stock" style="ellipse;whiteSpace=wrap;html=1;align=center;" parent="1" vertex="1">
          <mxGeometry x="650" y="400" width="100" height="40" as="geometry" />
        </mxCell>
        <mxCell id="A0odtMiIuocTaiuIzd_7-47" style="edgeStyle=orthogonalEdgeStyle;rounded=0;orthogonalLoop=1;jettySize=auto;html=1;entryX=0.658;entryY=-0.039;entryDx=0;entryDy=0;entryPerimeter=0;endArrow=none;endFill=0;" parent="1" source="A0odtMiIuocTaiuIzd_7-40" target="A0odtMiIuocTaiuIzd_7-39" edge="1">
          <mxGeometry relative="1" as="geometry" />
        </mxCell>
        <mxCell id="A0odtMiIuocTaiuIzd_7-49" style="edgeStyle=orthogonalEdgeStyle;rounded=0;orthogonalLoop=1;jettySize=auto;html=1;entryX=0.425;entryY=0.987;entryDx=0;entryDy=0;entryPerimeter=0;endArrow=none;endFill=0;" parent="1" source="A0odtMiIuocTaiuIzd_7-42" target="A0odtMiIuocTaiuIzd_7-39" edge="1">
          <mxGeometry relative="1" as="geometry" />
        </mxCell>
        <mxCell id="A0odtMiIuocTaiuIzd_7-50" style="edgeStyle=orthogonalEdgeStyle;rounded=0;orthogonalLoop=1;jettySize=auto;html=1;exitX=0;exitY=0;exitDx=0;exitDy=0;endArrow=none;endFill=0;" parent="1" source="A0odtMiIuocTaiuIzd_7-46" edge="1">
          <mxGeometry relative="1" as="geometry">
            <mxPoint x="580" y="350" as="targetPoint" />
          </mxGeometry>
        </mxCell>
        <mxCell id="A0odtMiIuocTaiuIzd_7-51" style="edgeStyle=orthogonalEdgeStyle;rounded=0;orthogonalLoop=1;jettySize=auto;html=1;endArrow=none;endFill=0;" parent="1" source="A0odtMiIuocTaiuIzd_7-43" edge="1">
          <mxGeometry relative="1" as="geometry">
            <mxPoint x="570" y="350" as="targetPoint" />
            <Array as="points">
              <mxPoint x="570" y="410" />
              <mxPoint x="570" y="410" />
            </Array>
          </mxGeometry>
        </mxCell>
        <mxCell id="A0odtMiIuocTaiuIzd_7-54" style="edgeStyle=orthogonalEdgeStyle;rounded=0;orthogonalLoop=1;jettySize=auto;html=1;entryX=0;entryY=0.5;entryDx=0;entryDy=0;endArrow=none;endFill=0;" parent="1" source="A0odtMiIuocTaiuIzd_7-53" target="A0odtMiIuocTaiuIzd_7-39" edge="1">
          <mxGeometry relative="1" as="geometry" />
        </mxCell>
        <mxCell id="A0odtMiIuocTaiuIzd_7-55" style="edgeStyle=orthogonalEdgeStyle;rounded=0;orthogonalLoop=1;jettySize=auto;html=1;endArrow=none;endFill=0;" parent="1" source="A0odtMiIuocTaiuIzd_7-53" target="A0odtMiIuocTaiuIzd_7-31" edge="1">
          <mxGeometry relative="1" as="geometry">
            <Array as="points">
              <mxPoint x="320" y="340" />
              <mxPoint x="320" y="340" />
            </Array>
          </mxGeometry>
        </mxCell>
        <mxCell id="A0odtMiIuocTaiuIzd_7-53" value="Added to" style="shape=rhombus;perimeter=rhombusPerimeter;whiteSpace=wrap;html=1;align=center;" parent="1" vertex="1">
          <mxGeometry x="340" y="300" width="120" height="60" as="geometry" />
        </mxCell>
        <mxCell id="A0odtMiIuocTaiuIzd_7-60" style="edgeStyle=orthogonalEdgeStyle;rounded=0;orthogonalLoop=1;jettySize=auto;html=1;endArrow=none;endFill=0;" parent="1" source="A0odtMiIuocTaiuIzd_7-56" target="A0odtMiIuocTaiuIzd_7-59" edge="1">
          <mxGeometry relative="1" as="geometry" />
        </mxCell>
        <mxCell id="A0odtMiIuocTaiuIzd_7-56" value="Review" style="whiteSpace=wrap;html=1;align=center;" parent="1" vertex="1">
          <mxGeometry x="140" y="490" width="90" height="40" as="geometry" />
        </mxCell>
        <mxCell id="A0odtMiIuocTaiuIzd_7-58" style="edgeStyle=orthogonalEdgeStyle;rounded=0;orthogonalLoop=1;jettySize=auto;html=1;entryX=0;entryY=0.5;entryDx=0;entryDy=0;endArrow=none;endFill=0;" parent="1" source="A0odtMiIuocTaiuIzd_7-57" target="A0odtMiIuocTaiuIzd_7-56" edge="1">
          <mxGeometry relative="1" as="geometry" />
        </mxCell>
        <mxCell id="A0odtMiIuocTaiuIzd_7-57" value="Review content" style="ellipse;whiteSpace=wrap;html=1;align=center;" parent="1" vertex="1">
          <mxGeometry x="40" y="550" width="100" height="40" as="geometry" />
        </mxCell>
        <mxCell id="A0odtMiIuocTaiuIzd_7-61" style="edgeStyle=orthogonalEdgeStyle;rounded=0;orthogonalLoop=1;jettySize=auto;html=1;entryX=0;entryY=1;entryDx=0;entryDy=0;endArrow=none;endFill=0;" parent="1" source="A0odtMiIuocTaiuIzd_7-59" target="A0odtMiIuocTaiuIzd_7-39" edge="1">
          <mxGeometry relative="1" as="geometry">
            <Array as="points">
              <mxPoint x="540" y="470" />
              <mxPoint x="540" y="350" />
            </Array>
          </mxGeometry>
        </mxCell>
        <mxCell id="A0odtMiIuocTaiuIzd_7-59" value="About" style="shape=rhombus;perimeter=rhombusPerimeter;whiteSpace=wrap;html=1;align=center;" parent="1" vertex="1">
          <mxGeometry x="270" y="440" width="120" height="60" as="geometry" />
        </mxCell>
        <mxCell id="A0odtMiIuocTaiuIzd_7-63" style="edgeStyle=orthogonalEdgeStyle;rounded=0;orthogonalLoop=1;jettySize=auto;html=1;entryX=0;entryY=0.25;entryDx=0;entryDy=0;endArrow=none;endFill=0;" parent="1" source="A0odtMiIuocTaiuIzd_7-62" target="A0odtMiIuocTaiuIzd_7-1" edge="1">
          <mxGeometry relative="1" as="geometry">
            <mxPoint x="10" y="100" as="targetPoint" />
            <Array as="points">
              <mxPoint x="10" y="251" />
              <mxPoint x="11" y="251" />
              <mxPoint x="11" y="120" />
            </Array>
          </mxGeometry>
        </mxCell>
        <mxCell id="A0odtMiIuocTaiuIzd_7-64" style="edgeStyle=orthogonalEdgeStyle;rounded=0;orthogonalLoop=1;jettySize=auto;html=1;endArrow=none;endFill=0;" parent="1" source="A0odtMiIuocTaiuIzd_7-62" target="A0odtMiIuocTaiuIzd_7-56" edge="1">
          <mxGeometry relative="1" as="geometry" />
        </mxCell>
        <mxCell id="A0odtMiIuocTaiuIzd_7-62" value="writes" style="shape=rhombus;perimeter=rhombusPerimeter;whiteSpace=wrap;html=1;align=center;" parent="1" vertex="1">
          <mxGeometry x="10" y="400" width="120" height="60" as="geometry" />
        </mxCell>
        <mxCell id="A0odtMiIuocTaiuIzd_7-67" style="edgeStyle=orthogonalEdgeStyle;rounded=0;orthogonalLoop=1;jettySize=auto;html=1;endArrow=none;endFill=0;" parent="1" source="A0odtMiIuocTaiuIzd_7-65" target="A0odtMiIuocTaiuIzd_7-66" edge="1">
          <mxGeometry relative="1" as="geometry" />
        </mxCell>
        <mxCell id="A0odtMiIuocTaiuIzd_7-65" value="Product catalog" style="whiteSpace=wrap;html=1;align=center;" parent="1" vertex="1">
          <mxGeometry x="324" y="565" width="90" height="40" as="geometry" />
        </mxCell>
        <mxCell id="A0odtMiIuocTaiuIzd_7-68" style="edgeStyle=orthogonalEdgeStyle;rounded=0;orthogonalLoop=1;jettySize=auto;html=1;endArrow=none;endFill=0;" parent="1" source="A0odtMiIuocTaiuIzd_7-66" target="A0odtMiIuocTaiuIzd_7-39" edge="1">
          <mxGeometry relative="1" as="geometry">
            <Array as="points">
              <mxPoint x="550" y="457" />
              <mxPoint x="560" y="457" />
            </Array>
          </mxGeometry>
        </mxCell>
        <mxCell id="A0odtMiIuocTaiuIzd_7-66" value="Contains" style="shape=rhombus;perimeter=rhombusPerimeter;whiteSpace=wrap;html=1;align=center;" parent="1" vertex="1">
          <mxGeometry x="520" y="565" width="120" height="60" as="geometry" />
        </mxCell>
        <mxCell id="A0odtMiIuocTaiuIzd_7-72" style="edgeStyle=orthogonalEdgeStyle;rounded=0;orthogonalLoop=1;jettySize=auto;html=1;endArrow=none;endFill=0;" parent="1" source="A0odtMiIuocTaiuIzd_7-71" target="A0odtMiIuocTaiuIzd_7-1" edge="1">
          <mxGeometry relative="1" as="geometry">
            <Array as="points">
              <mxPoint x="250" y="260" />
              <mxPoint x="240" y="260" />
              <mxPoint x="240" y="130" />
            </Array>
          </mxGeometry>
        </mxCell>
        <mxCell id="A0odtMiIuocTaiuIzd_7-73" style="edgeStyle=orthogonalEdgeStyle;rounded=0;orthogonalLoop=1;jettySize=auto;html=1;endArrow=none;endFill=0;" parent="1" source="A0odtMiIuocTaiuIzd_7-71" target="A0odtMiIuocTaiuIzd_7-65" edge="1">
          <mxGeometry relative="1" as="geometry">
            <Array as="points">
              <mxPoint x="410" y="400" />
            </Array>
          </mxGeometry>
        </mxCell>
        <mxCell id="A0odtMiIuocTaiuIzd_7-71" value="Has" style="shape=rhombus;perimeter=rhombusPerimeter;whiteSpace=wrap;html=1;align=center;" parent="1" vertex="1">
          <mxGeometry x="190" y="370" width="120" height="60" as="geometry" />
        </mxCell>
        <mxCell id="A0odtMiIuocTaiuIzd_7-74" value="(1,1)" style="text;html=1;align=center;verticalAlign=middle;resizable=0;points=[];autosize=1;strokeColor=none;fillColor=none;" parent="1" vertex="1">
          <mxGeometry x="274" y="240" width="50" height="30" as="geometry" />
        </mxCell>
        <mxCell id="A0odtMiIuocTaiuIzd_7-75" value="(1,1)" style="text;html=1;align=center;verticalAlign=middle;resizable=0;points=[];autosize=1;strokeColor=none;fillColor=none;" parent="1" vertex="1">
          <mxGeometry x="250" y="305" width="50" height="30" as="geometry" />
        </mxCell>
        <mxCell id="A0odtMiIuocTaiuIzd_7-76" value="(0,M)" style="text;html=1;align=center;verticalAlign=middle;resizable=0;points=[];autosize=1;strokeColor=none;fillColor=none;" parent="1" vertex="1">
          <mxGeometry x="265" y="338" width="50" height="30" as="geometry" />
        </mxCell>
        <mxCell id="A0odtMiIuocTaiuIzd_7-77" value="(0,N)" style="text;html=1;align=center;verticalAlign=middle;resizable=0;points=[];autosize=1;strokeColor=none;fillColor=none;" parent="1" vertex="1">
          <mxGeometry x="475" y="298" width="50" height="30" as="geometry" />
        </mxCell>
        <mxCell id="A0odtMiIuocTaiuIzd_7-78" value="(1,1)" style="text;html=1;align=center;verticalAlign=middle;resizable=0;points=[];autosize=1;strokeColor=none;fillColor=none;" parent="1" vertex="1">
          <mxGeometry x="395" y="508" width="50" height="30" as="geometry" />
        </mxCell>
        <mxCell id="A0odtMiIuocTaiuIzd_7-79" value="(0,1)" style="text;html=1;align=center;verticalAlign=middle;resizable=0;points=[];autosize=1;strokeColor=none;fillColor=none;" parent="1" vertex="1">
          <mxGeometry x="225" y="218" width="50" height="30" as="geometry" />
        </mxCell>
        <mxCell id="A0odtMiIuocTaiuIzd_7-80" value="(1,M)" style="text;html=1;align=center;verticalAlign=middle;resizable=0;points=[];autosize=1;strokeColor=none;fillColor=none;" parent="1" vertex="1">
          <mxGeometry x="290" y="135" width="50" height="30" as="geometry" />
        </mxCell>
        <mxCell id="A0odtMiIuocTaiuIzd_7-81" value="(1,N)" style="text;html=1;align=center;verticalAlign=middle;resizable=0;points=[];autosize=1;strokeColor=none;fillColor=none;" parent="1" vertex="1">
          <mxGeometry x="470" y="130" width="50" height="30" as="geometry" />
        </mxCell>
        <mxCell id="A0odtMiIuocTaiuIzd_7-82" value="(0,M)" style="text;html=1;align=center;verticalAlign=middle;resizable=0;points=[];autosize=1;strokeColor=none;fillColor=none;" parent="1" vertex="1">
          <mxGeometry x="10" y="300" width="50" height="30" as="geometry" />
        </mxCell>
        <mxCell id="A0odtMiIuocTaiuIzd_7-83" value="(1,1)" style="text;html=1;align=center;verticalAlign=middle;resizable=0;points=[];autosize=1;strokeColor=none;fillColor=none;" parent="1" vertex="1">
          <mxGeometry x="135" y="438" width="50" height="30" as="geometry" />
        </mxCell>
        <mxCell id="A0odtMiIuocTaiuIzd_7-84" value="(1,1)" style="text;html=1;align=center;verticalAlign=middle;resizable=0;points=[];autosize=1;strokeColor=none;fillColor=none;" parent="1" vertex="1">
          <mxGeometry x="245" y="488" width="50" height="30" as="geometry" />
        </mxCell>
        <mxCell id="A0odtMiIuocTaiuIzd_7-85" value="(0,M)" style="text;html=1;align=center;verticalAlign=middle;resizable=0;points=[];autosize=1;strokeColor=none;fillColor=none;" parent="1" vertex="1">
          <mxGeometry x="455" y="468" width="50" height="30" as="geometry" />
        </mxCell>
        <mxCell id="A0odtMiIuocTaiuIzd_7-86" value="(1,M)" style="text;html=1;align=center;verticalAlign=middle;resizable=0;points=[];autosize=1;strokeColor=none;fillColor=none;" parent="1" vertex="1">
          <mxGeometry x="545" y="518" width="50" height="30" as="geometry" />
        </mxCell>
        <mxCell id="A0odtMiIuocTaiuIzd_7-87" value="(0,M)" style="text;html=1;align=center;verticalAlign=middle;resizable=0;points=[];autosize=1;strokeColor=none;fillColor=none;" parent="1" vertex="1">
          <mxGeometry x="415" y="595" width="50" height="30" as="geometry" />
        </mxCell>
        <mxCell id="RSK8bT9PrQYfZCJCPioC-2" style="edgeStyle=orthogonalEdgeStyle;rounded=0;orthogonalLoop=1;jettySize=auto;html=1;entryX=1;entryY=0;entryDx=0;entryDy=0;endArrow=none;endFill=0;" edge="1" parent="1" source="RSK8bT9PrQYfZCJCPioC-1" target="A0odtMiIuocTaiuIzd_7-1">
          <mxGeometry relative="1" as="geometry">
            <Array as="points">
              <mxPoint x="340" y="80" />
              <mxPoint x="240" y="80" />
              <mxPoint x="240" y="110" />
            </Array>
          </mxGeometry>
        </mxCell>
        <mxCell id="RSK8bT9PrQYfZCJCPioC-1" value="Role" style="ellipse;whiteSpace=wrap;html=1;align=center;" vertex="1" parent="1">
          <mxGeometry x="290" y="20" width="100" height="40" as="geometry" />
        </mxCell>
      </root>
    </mxGraphModel>
  </diagram>
</mxfile>
